<svg xmlns="http://www.w3.org/2000/svg" viewBox="0 0 512 512" width="512" height="512">
  <rect width="512" height="512" fill="#2563eb"/>
  <g fill="#ffffff" transform="translate(0,8) scale(0.82) translate(56,48)">
    <path d="M256 128c-30.9 0-56 25.1-56 56v80c0 30.9 25.1 56 56 56s56-25.1 56-56v-80c0-30.9-25.1-56-56-56z"/>
    <path d="M360 248v16c0 57.4-46.6 104-104 104s-104-46.6-104-104v-16c0-13.3-10.7-24-24-24s-24 10.7-24 24v16c0 76.8 56.8 140.4 130 151.4V424h-40c-13.3 0-24 10.7-24 24s10.7 24 24 24h128c13.3 0 24-10.7 24-24s-10.7-24-24-24h-40v-24.6c73.2-11 130-74.6 130-151.4v-16c0-13.3-10.7-24-24-24s-24 10.7-24 24z"/>
  </g>
</svg>
